<?xml version="1.0" encoding="UTF-8" standalone="no"?>
<!DOCTYPE svg PUBLIC "-//W3C//DTD SVG 1.1//EN"
 "http://www.w3.org/Graphics/SVG/1.1/DTD/svg11.dtd">
<!-- Generated by graphviz version 2.43.0 (0)
 -->
<!-- Title: %3 Pages: 1 -->
<svg width="230pt" height="366pt"
 viewBox="0.00 0.00 230.00 366.07" xmlns="http://www.w3.org/2000/svg" xmlns:xlink="http://www.w3.org/1999/xlink">
<g id="graph0" class="graph" transform="scale(1 1) rotate(0) translate(4 362.07)">
<title>%3</title>
<polygon fill="white" stroke="transparent" points="-4,4 -4,-362.07 226,-362.07 226,4 -4,4"/>
<g id="clust1" class="cluster">
<title>cluster_legend</title>
<polygon fill="none" stroke="black" points="8,-116.07 8,-207.07 140,-207.07 140,-116.07 8,-116.07"/>
<text text-anchor="middle" x="74" y="-191.87" font-family="Times,serif" font-size="14.00">Légende</text>
</g>
<!-- 0 -->
<g id="node1" class="node">
<title>0</title>
<ellipse fill="lightblue" stroke="black" cx="74" cy="-88.07" rx="27" ry="18"/>
<text text-anchor="middle" x="74" y="-84.37" font-family="Times,serif" font-size="14.00">0</text>
</g>
<!-- 1 -->
<g id="node2" class="node">
<title>1</title>
<ellipse fill="lightblue" stroke="black" cx="195" cy="-88.07" rx="27" ry="18"/>
<text text-anchor="middle" x="195" y="-84.37" font-family="Times,serif" font-size="14.00">1</text>
</g>
<!-- 0&#45;&gt;1 -->
<g id="edge1" class="edge">
<title>0&#45;&gt;1</title>
<path fill="none" stroke="green" d="M76.03,-69.92C86.58,19.46 175.12,22.76 191.42,-60.03"/>
<polygon fill="green" stroke="green" points="187.98,-60.65 192.98,-69.99 194.89,-59.57 187.98,-60.65"/>
</g>
<!-- 0&#45;&gt;1 -->
<g id="edge2" class="edge">
<title>0&#45;&gt;1</title>
<path fill="none" stroke="green" d="M76.46,-69.91C88.51,1.35 171.5,4.71 190.24,-59.82"/>
<polygon fill="green" stroke="green" points="186.89,-60.86 192.53,-69.83 193.71,-59.31 186.89,-60.86"/>
</g>
<!-- 0&#45;&gt;1 -->
<g id="edge3" class="edge">
<title>0&#45;&gt;1</title>
<path fill="none" stroke="green" d="M77.17,-70.17C90.99,-16.54 166.91,-13.25 188.36,-60.29"/>
<polygon fill="green" stroke="green" points="185.16,-61.75 191.79,-70.01 191.76,-59.41 185.16,-61.75"/>
</g>
<!-- 0&#45;&gt;1 -->
<g id="edge4" class="edge">
<title>0&#45;&gt;1</title>
<path fill="none" stroke="green" d="M78.69,-70.24C94.97,-34.2 160.59,-31.27 184.89,-61.45"/>
<polygon fill="green" stroke="green" points="182.13,-63.64 190.35,-70.33 188.1,-59.98 182.13,-63.64"/>
</g>
<!-- 0&#45;&gt;1 -->
<g id="edge5" class="edge">
<title>0&#45;&gt;1</title>
<path fill="none" stroke="green" d="M82.44,-70.63C101.56,-51.17 152.69,-49.12 178.56,-64.48"/>
<polygon fill="green" stroke="green" points="176.5,-67.31 186.56,-70.64 180.77,-61.76 176.5,-67.31"/>
</g>
<!-- 0&#45;&gt;1 -->
<g id="edge6" class="edge">
<title>0&#45;&gt;1</title>
<path fill="none" stroke="green" d="M91.05,-73.7C110.94,-66.84 145.09,-65.98 168.57,-71.12"/>
<polygon fill="green" stroke="green" points="167.63,-74.49 178.21,-73.79 169.5,-67.74 167.63,-74.49"/>
</g>
<!-- 0&#45;&gt;1 -->
<g id="edge7" class="edge">
<title>0&#45;&gt;1</title>
<path fill="none" stroke="green" d="M99.95,-82.45C117.08,-81.17 140.07,-80.98 159.03,-81.86"/>
<polygon fill="green" stroke="green" points="158.9,-85.35 169.09,-82.46 159.31,-78.37 158.9,-85.35"/>
</g>
<!-- 0&#45;&gt;1 -->
<g id="edge8" class="edge">
<title>0&#45;&gt;1</title>
<path fill="none" stroke="green" d="M99.95,-93.68C117.08,-94.96 140.07,-95.16 159.03,-94.28"/>
<polygon fill="green" stroke="green" points="159.31,-97.77 169.09,-93.68 158.9,-90.78 159.31,-97.77"/>
</g>
<!-- 0&#45;&gt;1 -->
<g id="edge9" class="edge">
<title>0&#45;&gt;1</title>
<path fill="none" stroke="green" d="M91.05,-102.43C110.94,-109.29 145.09,-110.15 168.57,-105.02"/>
<polygon fill="green" stroke="green" points="169.5,-108.39 178.21,-102.34 167.63,-101.65 169.5,-108.39"/>
</g>
<!-- 0&#45;&gt;1 -->
<g id="edge10" class="edge">
<title>0&#45;&gt;1</title>
<path fill="none" stroke="green" d="M82.44,-105.5C101.56,-124.96 152.69,-127.01 178.56,-111.66"/>
<polygon fill="green" stroke="green" points="180.77,-114.37 186.56,-105.5 176.5,-108.82 180.77,-114.37"/>
</g>
<!-- 0&#45;&gt;1 -->
<g id="edge11" class="edge">
<title>0&#45;&gt;1</title>
<path fill="none" stroke="green" d="M78.69,-105.9C94.97,-141.94 160.59,-144.86 184.89,-114.69"/>
<polygon fill="green" stroke="green" points="188.1,-116.16 190.35,-105.8 182.13,-112.49 188.1,-116.16"/>
</g>
<!-- 0&#45;&gt;1 -->
<g id="edge12" class="edge">
<title>0&#45;&gt;1</title>
<path fill="none" stroke="green" d="M77.17,-105.97C90.99,-159.59 166.91,-162.88 188.36,-115.85"/>
<polygon fill="green" stroke="green" points="191.76,-116.72 191.79,-106.13 185.16,-114.39 191.76,-116.72"/>
</g>
<!-- 0&#45;&gt;1 -->
<g id="edge13" class="edge">
<title>0&#45;&gt;1</title>
<path fill="none" stroke="green" d="M76.46,-106.23C88.51,-177.48 171.5,-180.85 190.24,-116.32"/>
<polygon fill="green" stroke="green" points="193.71,-116.83 192.53,-106.3 186.89,-115.27 193.71,-116.83"/>
</g>
<!-- 0&#45;&gt;1 -->
<g id="edge14" class="edge">
<title>0&#45;&gt;1</title>
<path fill="none" stroke="green" d="M76.03,-106.21C86.58,-195.6 175.12,-198.89 191.42,-116.1"/>
<polygon fill="green" stroke="green" points="194.89,-116.56 192.98,-106.14 187.98,-115.48 194.89,-116.56"/>
</g>
<!-- 1&#45;&gt;1 -->
<g id="edge15" class="edge">
<title>1&#45;&gt;1</title>
<path fill="none" stroke="green" d="M193.45,-106.22C193.21,-115.61 193.73,-124.07 195,-124.07 195.78,-124.07 196.27,-120.93 196.48,-116.35"/>
<polygon fill="green" stroke="green" points="199.99,-116.24 196.55,-106.22 192.99,-116.2 199.99,-116.24"/>
</g>
<!-- 1&#45;&gt;1 -->
<g id="edge16" class="edge">
<title>1&#45;&gt;1</title>
<path fill="none" stroke="green" d="M192.42,-106.05C191.04,-123.27 191.9,-142.07 195,-142.07 197.49,-142.07 198.54,-129.89 198.13,-116.17"/>
<polygon fill="green" stroke="green" points="201.62,-115.84 197.58,-106.05 194.63,-116.22 201.62,-115.84"/>
</g>
<!-- 1&#45;&gt;1 -->
<g id="edge17" class="edge">
<title>1&#45;&gt;1</title>
<path fill="none" stroke="green" d="M191.75,-106.15C188.87,-130.48 189.95,-160.07 195,-160.07 199.36,-160.07 200.76,-138.01 199.21,-116.33"/>
<polygon fill="green" stroke="green" points="202.67,-115.77 198.25,-106.15 195.71,-116.43 202.67,-115.77"/>
</g>
<!-- 1&#45;&gt;1 -->
<g id="edge18" class="edge">
<title>1&#45;&gt;1</title>
<path fill="none" stroke="green" d="M191.27,-106.18C186.69,-137.31 187.94,-178.07 195,-178.07 201.32,-178.07 202.98,-145.45 199.98,-116.29"/>
<polygon fill="green" stroke="green" points="203.43,-115.67 198.73,-106.18 196.48,-116.53 203.43,-115.67"/>
</g>
<!-- 1&#45;&gt;1 -->
<g id="edge19" class="edge">
<title>1&#45;&gt;1</title>
<path fill="none" stroke="green" d="M190.94,-106.12C184.52,-143.86 185.88,-196.07 195,-196.07 203.34,-196.07 205.19,-152.44 200.54,-116.13"/>
<polygon fill="green" stroke="green" points="203.99,-115.5 199.06,-106.12 197.07,-116.53 203.99,-115.5"/>
</g>
<!-- 1&#45;&gt;1 -->
<g id="edge20" class="edge">
<title>1&#45;&gt;1</title>
<path fill="none" stroke="green" d="M190.67,-106.13C182.36,-150.33 183.8,-214.07 195,-214.07 205.37,-214.07 207.38,-159.44 201.02,-116.26"/>
<polygon fill="green" stroke="green" points="204.43,-115.42 199.33,-106.13 197.52,-116.57 204.43,-115.42"/>
</g>
<!-- 1&#45;&gt;1 -->
<g id="edge21" class="edge">
<title>1&#45;&gt;1</title>
<path fill="none" stroke="green" d="M190.48,-106.02C180.19,-156.59 181.7,-232.07 195,-232.07 207.44,-232.07 209.56,-166 201.36,-116.08"/>
<polygon fill="green" stroke="green" points="204.76,-115.22 199.52,-106.02 197.88,-116.49 204.76,-115.22"/>
</g>
<!-- 1&#45;&gt;1 -->
<g id="edge22" class="edge">
<title>1&#45;&gt;1</title>
<path fill="none" stroke="green" d="M190.31,-106.02C178.03,-162.89 179.6,-250.07 195,-250.07 209.53,-250.07 211.74,-172.49 201.65,-115.96"/>
<polygon fill="green" stroke="green" points="205.06,-115.16 199.69,-106.02 198.19,-116.51 205.06,-115.16"/>
</g>
<!-- 1&#45;&gt;1 -->
<g id="edge23" class="edge">
<title>1&#45;&gt;1</title>
<path fill="none" stroke="green" d="M190.18,-105.97C175.88,-169.09 177.48,-268.07 195,-268.07 211.63,-268.07 213.92,-178.88 201.88,-115.84"/>
<polygon fill="green" stroke="green" points="205.29,-115.05 199.82,-105.97 198.43,-116.47 205.29,-115.05"/>
</g>
<!-- 1&#45;&gt;1 -->
<g id="edge24" class="edge">
<title>1&#45;&gt;1</title>
<path fill="none" stroke="green" d="M190.05,-105.98C173.72,-175.31 175.37,-286.07 195,-286.07 213.71,-286.07 216.08,-185.45 202.12,-115.98"/>
<polygon fill="green" stroke="green" points="205.49,-115 199.95,-105.98 198.65,-116.49 205.49,-115"/>
</g>
<!-- 1&#45;&gt;1 -->
<g id="edge25" class="edge">
<title>1&#45;&gt;1</title>
<path fill="none" stroke="green" d="M189.91,-106.16C171.57,-181.69 173.27,-304.07 195,-304.07 215.8,-304.07 218.24,-191.98 202.35,-116.14"/>
<polygon fill="green" stroke="green" points="205.71,-115.14 200.09,-106.16 198.88,-116.68 205.71,-115.14"/>
</g>
<!-- 1&#45;&gt;1 -->
<g id="edge26" class="edge">
<title>1&#45;&gt;1</title>
<path fill="none" stroke="green" d="M189.89,-105.85C169.42,-187.52 171.12,-322.07 195,-322.07 217.95,-322.07 220.42,-197.82 202.41,-115.65"/>
<polygon fill="green" stroke="green" points="205.8,-114.79 200.11,-105.85 198.98,-116.39 205.8,-114.79"/>
</g>
<!-- 1&#45;&gt;1 -->
<g id="edge27" class="edge">
<title>1&#45;&gt;1</title>
<path fill="none" stroke="green" d="M189.82,-105.84C167.27,-193.64 168.99,-340.07 195,-340.07 220.07,-340.07 222.58,-204.03 202.53,-115.58"/>
<polygon fill="green" stroke="green" points="205.93,-114.74 200.18,-105.84 199.12,-116.38 205.93,-114.74"/>
</g>
<!-- 1&#45;&gt;1 -->
<g id="edge28" class="edge">
<title>1&#45;&gt;1</title>
<path fill="none" stroke="green" d="M189.73,-105.93C165.12,-199.86 166.88,-358.07 195,-358.07 222.16,-358.07 224.73,-210.49 202.7,-115.78"/>
<polygon fill="green" stroke="green" points="206.07,-114.8 200.27,-105.93 199.27,-116.48 206.07,-114.8"/>
</g>
<!-- legend -->
<g id="node3" class="node">
<title>legend</title>
<polygon fill="lightblue" stroke="transparent" points="132,-176.07 16,-176.07 16,-124.07 132,-124.07 132,-176.07"/>
<text text-anchor="start" x="34" y="-156.87" font-family="Times,serif" font-size="14.00">Nœud actif</text>
<text text-anchor="start" x="28" y="-135.87" font-family="Times,serif" font-size="14.00">Canal ouvert</text>
</g>
</g>
</svg>
